<svg
  viewBox="0 0 448 448"
  xmlns="http://www.w3.org/2000/svg"
>
  <path fill="#ffffff" d="m240 176c0 8.835938-7.164062 16-16 16s-16-7.164062-16-16 7.164062-16 16-16 16 7.164062 16 16zm0 0" />
  <path fill="#ffffff" d="m224 112c-44.164062.046875-79.953125 35.835938-80 80 0 50.832031 60.886719 120 80 140.425781 19.105469-20.425781 80-89.640625 80-140.425781-.046875-44.164062-35.835938-79.953125-80-80zm0 96c-17.671875 0-32-14.328125-32-32s14.328125-32 32-32 32 14.328125 32 32-14.328125 32-32 32zm0 0" />
  <path fill="#ffffff" d="m224 0c-123.710938 0-224 100.289062-224 224s100.289062 224 224 224 224-100.289062 224-224c-.140625-123.652344-100.347656-223.859375-224-224zm5.65625 349.65625c-3.125 3.121094-8.1875 3.121094-11.3125 0-3.6875-3.6875-90.34375-91.113281-90.34375-157.65625 0-53.019531 42.980469-96 96-96s96 42.980469 96 96c0 66.542969-86.65625 153.96875-90.34375 157.65625zm0 0" />
</svg>